<svg width="86" height="86" viewBox="0 0 86 86" fill="none" xmlns="http://www.w3.org/2000/svg">
<path d="M45.6641 32.1641C54.084 32.1641 60.9096 25.4117 60.9096 17.0821C60.9096 8.75247 54.084 2 45.6641 2C37.2443 2 30.4186 8.75247 30.4186 17.0821C30.4186 25.4117 37.2443 32.1641 45.6641 32.1641Z" stroke="white" stroke-width="4" stroke-linecap="round" stroke-linejoin="round"/>
<path d="M2 81.803C2.61049 72.09 7.07485 63.0089 14.4211 56.5367C21.7674 50.0645 31.4008 46.7252 41.2238 47.246" stroke="white" stroke-width="4" stroke-linecap="round" stroke-linejoin="round"/>
<path d="M54.3971 56.3252C54.3971 54.1288 69.1985 49.4431 69.1985 49.4431C69.1985 49.4431 84 54.1288 84 56.3252C83.9452 61.7721 82.5729 67.1268 79.9978 71.9415C77.4227 76.7563 73.7197 80.891 69.1985 84.0001C64.6774 80.891 60.9744 76.7563 58.3993 71.9415C55.8242 67.1268 54.4519 61.7721 54.3971 56.3252Z" stroke="white" stroke-width="4" stroke-linecap="round" stroke-linejoin="round"/>
</svg>
