<svg width="84" height="86" viewBox="0 0 84 86" fill="none" xmlns="http://www.w3.org/2000/svg">
<path d="M41.2665 42.872V32.6194L71.8859 2L82 12.2526L51.3806 42.872H41.2665Z" stroke="white" stroke-width="4" stroke-linecap="round" stroke-linejoin="round"/>
<path d="M24.9177 42.8721H11.0628C8.5666 43.1637 6.26451 44.362 4.59375 46.2394C2.92298 48.1167 1.99994 50.5423 1.99994 53.0554C1.99994 55.5686 2.92298 57.9942 4.59375 59.8715C6.26451 61.7488 8.5666 62.9471 11.0628 63.2388H71.8859C74.0685 63.821 75.9978 65.1077 77.3739 66.8991C78.7501 68.6904 79.4961 70.8861 79.4961 73.1451C79.4961 75.404 78.7501 77.5997 77.3739 79.391C75.9978 81.1824 74.0685 82.4691 71.8859 83.0513H28.9356" stroke="white" stroke-width="4" stroke-linecap="round" stroke-linejoin="round"/>
</svg>
