<svg width="22" height="22" viewBox="0 0 22 22" fill="none" xmlns="http://www.w3.org/2000/svg">
<path d="M11 21C12.9778 21 14.9112 20.4135 16.5557 19.3147C18.2002 18.2159 19.4819 16.6541 20.2388 14.8268C20.9957 12.9996 21.1937 10.9889 20.8078 9.0491C20.422 7.10929 19.4696 5.32746 18.0711 3.92894C16.6725 2.53041 14.8907 1.578 12.9509 1.19215C11.0111 0.8063 9.00042 1.00433 7.17316 1.76121C5.3459 2.51808 3.78412 3.79981 2.6853 5.4443C1.58649 7.08879 1 9.02219 1 11C1 13.6522 2.05357 16.1957 3.92893 18.0711C5.80429 19.9464 8.34783 21 11 21Z" stroke="#7F8085" stroke-width="1.5"/>
<path d="M2 14.496C3.312 15.024 4.264 15.024 4.84 14.496C5.712 13.696 4.96 11.296 6.176 10.64C7.392 9.98403 9.248 12.912 10.976 11.944C12.704 10.976 10.816 8.40003 12.016 7.36003C13.216 6.32003 14.776 7.48803 15.048 5.76003C15.32 4.03203 13.776 4.76803 13.448 3.12003C13.248 2.01603 13.248 1.44003 13.448 1.38403" stroke="#7F8085" stroke-width="1.5" stroke-linecap="round"/>
<path d="M13.512 20.672C12.576 19.72 12.24 18.824 12.496 18C12.896 16.768 13.544 16.84 13.824 16.072C14.104 15.304 13.304 14.224 15.08 13.288C16.264 12.6747 17.8907 13.3947 19.96 15.448" stroke="#7F8085" stroke-width="1.5" stroke-linecap="round"/>
</svg>
