<svg width="197" height="26" viewBox="0 0 197 26" fill="none" xmlns="http://www.w3.org/2000/svg">
<g clip-path="url(#clip0_348_2614)">
<path d="M27.7829 0L18.722 14.1236V0H13.382L4.39395 14.1236V0H0V13.455H3.22041V26H7.55068L15.4743 13.4921H17.5667V26H21.8333L29.8206 13.4921H33.0501V26H37.5078V14.1236H34.3238V0H27.7829Z" fill="#2DAFB7"/>
<path d="M45.9593 26L45.9502 24.31H54.9746V3.15716H46.7235L46.7144 1.46716H71.8226L71.8408 18.0793H62.4889L62.4707 16.3986H66.801L66.8101 3.15716H60.0054V24.31H73.2418V26H45.9593Z" fill="#103675"/>
<path d="M76.4712 25.9999V24.3099H78.2906V16.3242H102.799V24.3099H104.454V25.9999H76.4712ZM95.7755 24.3099H97.7314V18.0142H95.7846L95.7755 24.3099ZM89.5803 24.3099H91.4998V18.0142H89.5803V24.3099ZM83.3578 24.3099H85.3046V18.0142H83.3487L83.3578 24.3099ZM98.7412 14.9313L97.413 10.8921H102.516L103.845 14.9313H98.7412ZM90.9721 14.9313L91.709 6.7692H96.7307L96.6033 8.20849H104.436V9.89849H96.4305L95.9756 14.9313H90.9721ZM83.7672 14.9313V6.7692H88.7888V14.9313H83.7672ZM78.0268 14.8571V7.7442H82.1206V14.8478L78.0268 14.8571ZM94.047 5.71992V3.7142H87.0149V5.71063H81.9932V3.7142H76.5349V2.0242H81.9932V0.0927734H87.024V2.05206H94.047V0.0927734H99.0687V2.05206H103.899V3.74206H99.0687V5.71063L94.047 5.71992Z" fill="#103675"/>
<path d="M129.181 25.9999V11.4956H127.416L126.897 25.9999H121.903L122.812 1.52277L134.73 0.974916V2.65563L127.78 2.95277L127.47 9.81491H135.549V11.4956H134.239V25.9999H129.181ZM118.1 25.9999L117.691 18.1628H120.42L120.829 25.9999H118.1ZM110.777 25.9999V24.3099H111.687V16.5006H107.529V14.8199H111.678V12.1178H107.129V10.4371H109.485L108.685 5.61777H112.833L113.643 10.4371H114.953L115.762 5.61777H119.92L119.101 10.4371H121.184V12.1178H116.699V14.8199H120.811V16.5006H116.726V25.9999H110.777ZM107.229 25.9999L107.657 18.1628H110.113L109.694 25.9999H107.229ZM107.347 4.15992V2.4792H111.587L111.15 0.0927734H116.135L116.581 2.4792H120.993V4.15992H107.347Z" fill="#103675"/>
<path d="M145.41 25.9999V24.3099H146.938V20.7442L143.627 22.1742V25.9999H138.66V9.81491H151.923V25.9999H145.41ZM143.59 17.1971V20.5121L146.911 19.0821V15.7856L143.59 17.1971ZM143.59 15.5349L146.911 14.1049V11.4956H143.59V15.5349ZM153.37 25.9349V14.0028H158.337V17.1785L166.142 15.6092V17.3178L158.364 18.8871V24.2449H166.06V25.9349H153.37ZM153.37 12.0063V0.0927734H158.337V4.07634L166.115 2.92492V4.64277L158.291 5.75706V10.3349H165.724V12.0249L153.37 12.0063ZM138.76 8.25492V6.47206L140.097 0.120631H145.364L144.063 6.62063H147.311L146.693 1.0492H151.432L152.251 8.3292L138.76 8.25492Z" fill="#103675"/>
<path d="M193.434 25.9999L192.797 18.7478H196.172L196.773 25.9999H193.434ZM186.356 25.9999L186.52 24.3099H187.43V17.6892H183.318V4.99563H186.347L186.675 3.49134H191.378L191.051 4.99563H196.063V17.6892H192.079V26.0463L186.356 25.9999ZM187.757 15.8599H191.706V12.1921H187.767L187.757 15.8599ZM187.757 10.5021H191.697V6.49992H187.757V10.5021ZM182.399 25.9999L182.963 18.7478H186.184L185.583 25.9999H182.399ZM176.413 25.9999L177.514 0.779916H196.991V2.46063H182.436L181.444 25.9999H176.413ZM168.999 25.9999L171.028 15.3678H176.14L174.112 25.9999H168.999ZM171.028 14.1513L169.818 7.58634H174.93L176.14 14.1513H171.028ZM171.028 6.49063L169.763 0.0927734H174.885L176.086 6.49992L171.028 6.49063Z" fill="#103675"/>
</g>
<defs>
<clipPath id="clip0_348_2614">
<rect width="197" height="26" fill="white"/>
</clipPath>
</defs>
</svg>
