<svg width="24" height="30" viewBox="0 0 24 30" fill="none" xmlns="http://www.w3.org/2000/svg">
<path d="M5 9H19C19.2652 9 19.5196 8.89464 19.7071 8.70711C19.8946 8.51957 20 8.26522 20 8C20 7.73478 19.8946 7.48043 19.7071 7.29289C19.5196 7.10536 19.2652 7 19 7H5C4.73478 7 4.48043 7.10536 4.29289 7.29289C4.10536 7.48043 4 7.73478 4 8C4 8.26522 4.10536 8.51957 4.29289 8.70711C4.48043 8.89464 4.73478 9 5 9ZM5 16H19C19.2652 16 19.5196 15.8946 19.7071 15.7071C19.8946 15.5196 20 15.2652 20 15C20 14.7348 19.8946 14.4804 19.7071 14.2929C19.5196 14.1054 19.2652 14 19 14H5C4.73478 14 4.48043 14.1054 4.29289 14.2929C4.10536 14.4804 4 14.7348 4 15C4 15.2652 4.10536 15.5196 4.29289 15.7071C4.48043 15.8946 4.73478 16 5 16ZM13 21H5C4.73478 21 4.48043 21.1054 4.29289 21.2929C4.10536 21.4804 4 21.7348 4 22C4 22.2652 4.10536 22.5196 4.29289 22.7071C4.48043 22.8946 4.73478 23 5 23H13C13.2652 23 13.5196 22.8946 13.7071 22.7071C13.8946 22.5196 14 22.2652 14 22C14 21.7348 13.8946 21.4804 13.7071 21.2929C13.5196 21.1054 13.2652 21 13 21Z" fill="#969696"/>
<path d="M24 3.154C24 1.415 22.611 0 20.904 0H3.095C1.389 0 0 1.415 0 3.154V26.846C0 28.585 1.389 30 3.095 30H16.689C16.738 30 16.78 29.979 16.827 29.972C17.107 30.022 17.404 29.964 17.639 29.768L23.639 24.768C23.7601 24.6644 23.8541 24.5328 23.913 24.3848C23.9719 24.2367 23.9939 24.0765 23.977 23.918C23.982 23.881 24 23.849 24 23.811V3.154ZM2 26.846V3.154C2 2.518 2.491 2 3.095 2H20.904C21.509 2 22 2.518 22 3.154V22H19C18.2044 22 17.4413 22.3161 16.8787 22.8787C16.3161 23.4413 16 24.2044 16 25V28H3.095C2.491 28 2 27.482 2 26.846ZM21.438 24L18 26.865V25C18 24.7348 18.1054 24.4804 18.2929 24.2929C18.4804 24.1054 18.7348 24 19 24H21.438Z" fill="#969696"/>
</svg>
